<?xml version="1.0" encoding="UTF-8"?><svg id="Layer_2" xmlns="http://www.w3.org/2000/svg" viewBox="0 0 118.37 118.37"><defs><style>.cls-1{fill:#fff;}</style></defs><g id="Layer_1-2"><circle cx="59.18" cy="59.18" r="59.18"/><path class="cls-1" d="M30.61,49.9c-1.57,0-2.83.26-3.79.74-.96.48-1.44,1.13-1.44,1.87s.53,1.39,1.61,1.96c1.04.57,2.74,1.14,5.14,1.7,3.66.92,6.32,2.05,8.02,3.49,1.66,1.44,2.49,3.31,2.49,5.66,0,1.44-.31,2.75-.87,3.93-.57,1.17-1.39,2.18-2.48,3.01-1.09.83-2.4,1.48-3.92,1.92-1.53.48-3.23.7-5.1.7-1.27,0-2.48-.09-3.75-.22-1.26-.13-2.48-.35-3.66-.66-1.18-.31-2.31-.65-3.36-1.09-1.05-.39-2.01-.87-2.83-1.44l2.26-6.19c1.7,1,3.62,1.74,5.67,2.23,2.05.48,3.97.7,5.67.7,1.39,0,2.53-.22,3.44-.7.87-.48,1.31-1.09,1.31-1.92,0-.48-.17-.92-.56-1.26-.39-.35-.96-.65-1.61-.92s-1.44-.52-2.26-.74c-.87-.22-1.79-.44-2.7-.65-3.36-.83-5.88-2.01-7.58-3.49-1.74-1.44-2.62-3.27-2.62-5.45,0-1.48.31-2.83.92-4.01.57-1.18,1.44-2.23,2.53-3.05s2.44-1.44,4.05-1.87c1.57-.44,3.35-.65,5.32-.65,2.31,0,4.45.31,6.36.91,1.92.61,3.71,1.48,5.36,2.57l-2.66,5.75c-3.01-1.87-5.97-2.83-8.94-2.83Z"/><path class="cls-1" d="M68.17,43.93v6.45h-14.91v5.45h13.12v6.19h-13.12v5.97h15.3v6.45h-22.71v-30.51h22.32Z"/><path class="cls-1" d="M71.28,52.91c.78-1.92,1.87-3.57,3.27-4.97,1.39-1.39,3.05-2.48,5.01-3.27,1.92-.78,4.01-1.17,6.32-1.17s4.4.39,6.36,1.17c1.92.78,3.57,1.87,5.01,3.27,1.39,1.39,2.48,3.05,3.27,4.97.78,1.92,1.17,4.01,1.17,6.28s-.39,4.36-1.17,6.27c-.78,1.92-1.88,3.57-3.27,4.97-1.44,1.39-3.09,2.48-5.01,3.27-1.96.79-4.05,1.18-6.36,1.18s-4.4-.39-6.32-1.18c-1.96-.78-3.62-1.87-5.01-3.27-1.39-1.39-2.48-3.05-3.27-4.97-.78-1.92-1.18-4.01-1.18-6.27s.39-4.36,1.18-6.28ZM78.3,62.72c.39,1.09,1,2.01,1.74,2.79.74.78,1.61,1.39,2.62,1.83,1,.44,2.05.66,3.23.66s2.31-.22,3.31-.66c1-.43,1.83-1.04,2.57-1.83s1.31-1.7,1.7-2.79.61-2.27.61-3.53-.22-2.44-.61-3.53-.96-2.01-1.7-2.79-1.57-1.39-2.57-1.83c-1-.44-2.13-.65-3.31-.65s-2.22.22-3.23.65c-1,.44-1.87,1.05-2.62,1.83-.74.78-1.35,1.7-1.74,2.79-.39,1.09-.61,2.27-.61,3.53s.22,2.44.61,3.53Z"/></g></svg>